<?xml version='1.0' encoding='iso-8859-1'?>
<!DOCTYPE svg PUBLIC '-//W3C//DTD SVG 1.1//EN' 'http://www.w3.org/Graphics/SVG/1.1/DTD/svg11.dtd'>
<svg version="1.1" xmlns="http://www.w3.org/2000/svg" viewBox="0 0 297 297" xmlns:xlink="http://www.w3.org/1999/xlink" enable-background="new 0 0 297 297">
  <g>
    <path d="m286.151,284.739l-25.59-102.36c-1.042-4.168-4.787-7.092-9.083-7.092h-47.964c15.499-26.582 28.719-58.839 28.719-91.545-2.84217e-14-46.176-37.568-83.742-83.744-83.742-46.175,0-83.742,37.566-83.742,83.742 0,32.706 13.22,64.963 28.719,91.545h-47.964c-4.296,0-8.041,2.924-9.083,7.092l-25.747,102.988c-0.699,2.797-0.071,5.76 1.704,8.032 1.773,2.272 4.496,3.601 7.379,3.601h257.47 0.012c5.18,0 9.371-4.191 9.371-9.362 0-1.012-0.162-1.987-0.457-2.899zm-137.662-266.014c35.852-2.13163e-14 65.017,29.167 65.017,65.018 0,56.788-47.267,115.108-65.017,135.005-17.75-19.896-65.017-78.217-65.017-135.005 0.001-35.851 29.167-65.018 65.017-65.018zm-116.742,259.55l21.065-84.263h52.492c17.816,26.159 35.078,43.624 36.564,45.11 1.757,1.756 4.138,2.742 6.62,2.742 2.483,0 4.864-0.986 6.621-2.742 1.486-1.486 18.748-18.951 36.564-45.11h52.492l21.065,84.263h-233.483z"/>
    <path d="m153.548,136.605c7.146-4.586 42.794-28.667 42.794-52.344 0-16.061-12.833-29.127-28.606-29.127-7.404,0-14.16,2.879-19.244,7.594-5.086-4.715-11.843-7.594-19.248-7.594-15.772,0-28.605,13.066-28.605,29.127 0,23.678 35.65,47.758 42.796,52.344 1.541,0.989 3.299,1.483 5.058,1.483 1.756,0.001 3.515-0.493 5.055-1.483zm-34.185-52.343c0-5.735 4.432-10.402 9.88-10.402 5.451,0 9.885,4.667 9.885,10.402 0,5.171 4.191,9.362 9.363,9.362 5.171,0 9.362-4.191 9.362-9.362 0-5.735 4.434-10.402 9.882-10.402 5.448,0 9.881,4.667 9.881,10.402 0,8.788-15.91,23.672-29.125,33.141-13.215-9.469-29.128-24.352-29.128-33.141z"/>
  </g>
</svg>
